<svg xmlns="http://www.w3.org/2000/svg" version="1.1" xmlns:xlink="http://www.w3.org/1999/xlink" xmlns:svgjs="http://svgjs.dev/svgjs" width="1000" height="1000"><g clip-path="url(#SvgjsClipPath1195)"><rect width="1000" height="1000" fill="#ffffff"></rect><g transform="matrix(3.730647267300877,0,0,3.730647267300877,172.00149225890692,100)"><svg xmlns="http://www.w3.org/2000/svg" version="1.1" xmlns:xlink="http://www.w3.org/1999/xlink" xmlns:svgjs="http://svgjs.dev/svgjs" width="175.84" height="214.44"><svg xmlns="http://www.w3.org/2000/svg" viewBox="0 0 175.84 214.44">
  <g fill="#1d1d1b">
    <path d="m145.45 70.52c14.48-6.45 23.78-17.47 23.78-33.91 0-22.88-15.1-36.61-36.81-36.61h-29.69l-96.37 149.77h10.4l27.69-43.63h49.63l.28 43.63h44.26c23.57 0 37.22-18.1 37.22-39.52 0-20.18-11.17-34.11-30.4-39.73zm-51.22 27.45-45.93-.13 46.66-71.99-.74 72.13zm11.52-89.65h22.13c24.81 0 31.64 11.65 31.64 27.67 0 19.14-13.23 31.62-38.67 31.62h-15.1zm31.22 133.13h-31.22v-65.52h25.64c22.13 0 34.74 16.64 34.74 34.74 0 21.84-16.96 30.79-29.16 30.79z"></path>
    <text font-family="SegoeUI-Light, 'Segoe UI'" font-size="54.82" font-weight="300" transform="translate(0 192.7)" svgjs:data="{&quot;leading&quot;:&quot;1.3&quot;}">
      <tspan x="0" y="0">PH</tspan>
      <tspan letter-spacing="-.07em" x="66.92" y="0">OT</tspan>
      <tspan x="129.24" y="0">O</tspan>
    </text>
  </g>
</svg></svg></g></g><defs><clipPath id="SvgjsClipPath1195"><rect width="1000" height="1000" x="0" y="0" rx="200" ry="200"></rect></clipPath></defs></svg>